<mxfile host="Electron" agent="Mozilla/5.0 (Windows NT 10.0; Win64; x64) AppleWebKit/537.36 (KHTML, like Gecko) draw.io/27.0.5 Chrome/134.0.6998.205 Electron/35.3.0 Safari/537.36" version="27.0.5">
  <diagram name="Page-1" id="58cdce13-f638-feb5-8d6f-7d28b1aa9fa0">
    <mxGraphModel dx="1240" dy="773" grid="1" gridSize="10" guides="1" tooltips="1" connect="1" arrows="1" fold="1" page="1" pageScale="1" pageWidth="1169" pageHeight="827" background="none" math="0" shadow="0">
      <root>
        <mxCell id="0" />
        <mxCell id="1" parent="0" />
        <mxCell id="q-PoO6qzD3KENwYKcGVs-78" style="edgeStyle=orthogonalEdgeStyle;rounded=0;orthogonalLoop=1;jettySize=auto;html=1;" edge="1" parent="1" source="q-PoO6qzD3KENwYKcGVs-23" target="q-PoO6qzD3KENwYKcGVs-64">
          <mxGeometry relative="1" as="geometry">
            <mxPoint x="567" y="238" as="sourcePoint" />
          </mxGeometry>
        </mxCell>
        <mxCell id="q-PoO6qzD3KENwYKcGVs-79" value="SerialComand==&quot;turnOff&quot;" style="edgeLabel;html=1;align=center;verticalAlign=middle;resizable=0;points=[];" vertex="1" connectable="0" parent="q-PoO6qzD3KENwYKcGVs-78">
          <mxGeometry x="0.0321" relative="1" as="geometry">
            <mxPoint as="offset" />
          </mxGeometry>
        </mxCell>
        <mxCell id="q-PoO6qzD3KENwYKcGVs-80" style="edgeStyle=orthogonalEdgeStyle;rounded=0;orthogonalLoop=1;jettySize=auto;html=1;entryX=0.5;entryY=0;entryDx=0;entryDy=0;" edge="1" parent="1" source="q-PoO6qzD3KENwYKcGVs-23" target="q-PoO6qzD3KENwYKcGVs-67">
          <mxGeometry relative="1" as="geometry" />
        </mxCell>
        <mxCell id="q-PoO6qzD3KENwYKcGVs-81" value="SerialComand==&quot;setError&quot;" style="edgeLabel;html=1;align=center;verticalAlign=middle;resizable=0;points=[];" vertex="1" connectable="0" parent="q-PoO6qzD3KENwYKcGVs-80">
          <mxGeometry x="-0.1432" relative="1" as="geometry">
            <mxPoint as="offset" />
          </mxGeometry>
        </mxCell>
        <mxCell id="q-PoO6qzD3KENwYKcGVs-23" value="ON" style="shape=umlFrame;whiteSpace=wrap;html=1;pointerEvents=0;strokeColor=#999999;dashed=1;" vertex="1" parent="1">
          <mxGeometry x="177" y="278" width="780" height="160" as="geometry" />
        </mxCell>
        <mxCell id="q-PoO6qzD3KENwYKcGVs-62" style="edgeStyle=orthogonalEdgeStyle;rounded=0;orthogonalLoop=1;jettySize=auto;html=1;exitX=1;exitY=0.5;exitDx=0;exitDy=0;entryX=0;entryY=0.5;entryDx=0;entryDy=0;" edge="1" parent="1" source="q-PoO6qzD3KENwYKcGVs-39" target="q-PoO6qzD3KENwYKcGVs-57">
          <mxGeometry relative="1" as="geometry" />
        </mxCell>
        <mxCell id="q-PoO6qzD3KENwYKcGVs-72" value="GREEN_timer" style="edgeLabel;html=1;align=center;verticalAlign=middle;resizable=0;points=[];" vertex="1" connectable="0" parent="q-PoO6qzD3KENwYKcGVs-62">
          <mxGeometry x="0.004" relative="1" as="geometry">
            <mxPoint x="-4" as="offset" />
          </mxGeometry>
        </mxCell>
        <mxCell id="q-PoO6qzD3KENwYKcGVs-39" value="GREEN" style="swimlane;fontStyle=0;childLayout=stackLayout;horizontal=1;startSize=30;horizontalStack=0;resizeParent=1;resizeParentMax=0;resizeLast=0;collapsible=1;marginBottom=0;whiteSpace=wrap;html=1;" vertex="1" parent="1">
          <mxGeometry x="197" y="328" width="180" height="90" as="geometry" />
        </mxCell>
        <mxCell id="q-PoO6qzD3KENwYKcGVs-40" value="&lt;i&gt;entry&lt;/i&gt;: set(GREEN_LED, ON)" style="text;strokeColor=none;fillColor=none;align=left;verticalAlign=middle;spacingLeft=4;spacingRight=4;overflow=hidden;points=[[0,0.5],[1,0.5]];portConstraint=eastwest;rotatable=0;whiteSpace=wrap;html=1;" vertex="1" parent="q-PoO6qzD3KENwYKcGVs-39">
          <mxGeometry y="30" width="180" height="30" as="geometry" />
        </mxCell>
        <mxCell id="q-PoO6qzD3KENwYKcGVs-41" value="&lt;i&gt;exit&lt;/i&gt;: set(GREEN_LED, OFF)" style="text;strokeColor=none;fillColor=none;align=left;verticalAlign=middle;spacingLeft=4;spacingRight=4;overflow=hidden;points=[[0,0.5],[1,0.5]];portConstraint=eastwest;rotatable=0;whiteSpace=wrap;html=1;" vertex="1" parent="q-PoO6qzD3KENwYKcGVs-39">
          <mxGeometry y="60" width="180" height="30" as="geometry" />
        </mxCell>
        <mxCell id="q-PoO6qzD3KENwYKcGVs-56" value="YELLOW" style="swimlane;fontStyle=0;childLayout=stackLayout;horizontal=1;startSize=30;horizontalStack=0;resizeParent=1;resizeParentMax=0;resizeLast=0;collapsible=1;marginBottom=0;whiteSpace=wrap;html=1;" vertex="1" parent="1">
          <mxGeometry x="477" y="328" width="180" height="90" as="geometry" />
        </mxCell>
        <mxCell id="q-PoO6qzD3KENwYKcGVs-57" value="&lt;i&gt;entry&lt;/i&gt;: set(&lt;span style=&quot;text-align: center;&quot;&gt;YELLOW&lt;/span&gt;_LED, ON)" style="text;strokeColor=none;fillColor=none;align=left;verticalAlign=middle;spacingLeft=4;spacingRight=4;overflow=hidden;points=[[0,0.5],[1,0.5]];portConstraint=eastwest;rotatable=0;whiteSpace=wrap;html=1;" vertex="1" parent="q-PoO6qzD3KENwYKcGVs-56">
          <mxGeometry y="30" width="180" height="30" as="geometry" />
        </mxCell>
        <mxCell id="q-PoO6qzD3KENwYKcGVs-58" value="&lt;i&gt;exit&lt;/i&gt;: set(&lt;span style=&quot;text-align: center;&quot;&gt;YELLOW&lt;/span&gt;_LED, OFF)" style="text;strokeColor=none;fillColor=none;align=left;verticalAlign=middle;spacingLeft=4;spacingRight=4;overflow=hidden;points=[[0,0.5],[1,0.5]];portConstraint=eastwest;rotatable=0;whiteSpace=wrap;html=1;" vertex="1" parent="q-PoO6qzD3KENwYKcGVs-56">
          <mxGeometry y="60" width="180" height="30" as="geometry" />
        </mxCell>
        <mxCell id="q-PoO6qzD3KENwYKcGVs-74" style="edgeStyle=orthogonalEdgeStyle;rounded=0;orthogonalLoop=1;jettySize=auto;html=1;entryX=0.5;entryY=0;entryDx=0;entryDy=0;" edge="1" parent="1" source="q-PoO6qzD3KENwYKcGVs-59" target="q-PoO6qzD3KENwYKcGVs-39">
          <mxGeometry relative="1" as="geometry">
            <Array as="points">
              <mxPoint x="847" y="308" />
              <mxPoint x="287" y="308" />
            </Array>
          </mxGeometry>
        </mxCell>
        <mxCell id="q-PoO6qzD3KENwYKcGVs-75" value="RED_timer" style="edgeLabel;html=1;align=center;verticalAlign=middle;resizable=0;points=[];" vertex="1" connectable="0" parent="q-PoO6qzD3KENwYKcGVs-74">
          <mxGeometry x="-0.0009" relative="1" as="geometry">
            <mxPoint as="offset" />
          </mxGeometry>
        </mxCell>
        <mxCell id="q-PoO6qzD3KENwYKcGVs-59" value="RED" style="swimlane;fontStyle=0;childLayout=stackLayout;horizontal=1;startSize=30;horizontalStack=0;resizeParent=1;resizeParentMax=0;resizeLast=0;collapsible=1;marginBottom=0;whiteSpace=wrap;html=1;" vertex="1" parent="1">
          <mxGeometry x="757" y="328" width="180" height="90" as="geometry" />
        </mxCell>
        <mxCell id="q-PoO6qzD3KENwYKcGVs-60" value="&lt;i&gt;entry&lt;/i&gt;: set(&lt;span style=&quot;text-align: center;&quot;&gt;RED&lt;/span&gt;_LED, ON)" style="text;strokeColor=none;fillColor=none;align=left;verticalAlign=middle;spacingLeft=4;spacingRight=4;overflow=hidden;points=[[0,0.5],[1,0.5]];portConstraint=eastwest;rotatable=0;whiteSpace=wrap;html=1;" vertex="1" parent="q-PoO6qzD3KENwYKcGVs-59">
          <mxGeometry y="30" width="180" height="30" as="geometry" />
        </mxCell>
        <mxCell id="q-PoO6qzD3KENwYKcGVs-61" value="&lt;i&gt;exit&lt;/i&gt;: set(&lt;span style=&quot;text-align: center;&quot;&gt;RED&lt;/span&gt;_LED, OFF)" style="text;strokeColor=none;fillColor=none;align=left;verticalAlign=middle;spacingLeft=4;spacingRight=4;overflow=hidden;points=[[0,0.5],[1,0.5]];portConstraint=eastwest;rotatable=0;whiteSpace=wrap;html=1;" vertex="1" parent="q-PoO6qzD3KENwYKcGVs-59">
          <mxGeometry y="60" width="180" height="30" as="geometry" />
        </mxCell>
        <mxCell id="q-PoO6qzD3KENwYKcGVs-63" style="edgeStyle=orthogonalEdgeStyle;rounded=0;orthogonalLoop=1;jettySize=auto;html=1;exitX=1;exitY=0.5;exitDx=0;exitDy=0;entryX=0;entryY=0.5;entryDx=0;entryDy=0;" edge="1" parent="1" source="q-PoO6qzD3KENwYKcGVs-57" target="q-PoO6qzD3KENwYKcGVs-60">
          <mxGeometry relative="1" as="geometry" />
        </mxCell>
        <mxCell id="q-PoO6qzD3KENwYKcGVs-73" value="YELLOW_timer" style="edgeLabel;html=1;align=center;verticalAlign=middle;resizable=0;points=[];" vertex="1" connectable="0" parent="q-PoO6qzD3KENwYKcGVs-63">
          <mxGeometry x="0.0015" relative="1" as="geometry">
            <mxPoint x="-4" as="offset" />
          </mxGeometry>
        </mxCell>
        <mxCell id="q-PoO6qzD3KENwYKcGVs-76" style="edgeStyle=orthogonalEdgeStyle;rounded=0;orthogonalLoop=1;jettySize=auto;html=1;" edge="1" parent="1" source="q-PoO6qzD3KENwYKcGVs-64">
          <mxGeometry relative="1" as="geometry">
            <mxPoint x="287" y="328" as="targetPoint" />
          </mxGeometry>
        </mxCell>
        <mxCell id="q-PoO6qzD3KENwYKcGVs-77" value="SerialComand==&quot;turnOn&quot;" style="edgeLabel;html=1;align=center;verticalAlign=middle;resizable=0;points=[];" vertex="1" connectable="0" parent="q-PoO6qzD3KENwYKcGVs-76">
          <mxGeometry x="-0.45" y="1" relative="1" as="geometry">
            <mxPoint as="offset" />
          </mxGeometry>
        </mxCell>
        <mxCell id="q-PoO6qzD3KENwYKcGVs-64" value="OFF" style="swimlane;fontStyle=0;childLayout=stackLayout;horizontal=1;startSize=30;horizontalStack=0;resizeParent=1;resizeParentMax=0;resizeLast=0;collapsible=1;marginBottom=0;whiteSpace=wrap;html=1;" vertex="1" parent="1">
          <mxGeometry x="477" y="109" width="180" height="110" as="geometry">
            <mxRectangle x="484" y="199" width="60" height="30" as="alternateBounds" />
          </mxGeometry>
        </mxCell>
        <mxCell id="q-PoO6qzD3KENwYKcGVs-90" value="&lt;i&gt;entry&lt;/i&gt;:&amp;nbsp;&lt;div&gt;set(&lt;span style=&quot;text-align: center;&quot;&gt;GREEN&lt;/span&gt;_LED, OFF)&lt;br&gt;&lt;div&gt;set(&lt;span style=&quot;text-align: center;&quot;&gt;YELLOW&lt;/span&gt;_LED, OFF)&lt;br&gt;&lt;div&gt;set(&lt;span style=&quot;text-align: center;&quot;&gt;RED&lt;/span&gt;_LED, OFF)&lt;/div&gt;&lt;/div&gt;&lt;/div&gt;" style="text;strokeColor=none;fillColor=none;align=left;verticalAlign=middle;spacingLeft=4;spacingRight=4;overflow=hidden;points=[[0,0.5],[1,0.5]];portConstraint=eastwest;rotatable=0;whiteSpace=wrap;html=1;" vertex="1" parent="q-PoO6qzD3KENwYKcGVs-64">
          <mxGeometry y="30" width="180" height="80" as="geometry" />
        </mxCell>
        <mxCell id="q-PoO6qzD3KENwYKcGVs-83" style="edgeStyle=orthogonalEdgeStyle;rounded=0;orthogonalLoop=1;jettySize=auto;html=1;exitX=0;exitY=0.5;exitDx=0;exitDy=0;" edge="1" parent="1" source="q-PoO6qzD3KENwYKcGVs-67" target="q-PoO6qzD3KENwYKcGVs-39">
          <mxGeometry relative="1" as="geometry" />
        </mxCell>
        <mxCell id="q-PoO6qzD3KENwYKcGVs-84" value="SerialComand==&quot;turnOn&quot;" style="edgeLabel;html=1;align=center;verticalAlign=middle;resizable=0;points=[];" vertex="1" connectable="0" parent="q-PoO6qzD3KENwYKcGVs-83">
          <mxGeometry x="-0.3913" y="-1" relative="1" as="geometry">
            <mxPoint x="-19" y="1" as="offset" />
          </mxGeometry>
        </mxCell>
        <mxCell id="q-PoO6qzD3KENwYKcGVs-96" style="edgeStyle=orthogonalEdgeStyle;rounded=0;orthogonalLoop=1;jettySize=auto;html=1;entryX=0.25;entryY=0;entryDx=0;entryDy=0;" edge="1" parent="1" source="q-PoO6qzD3KENwYKcGVs-67" target="q-PoO6qzD3KENwYKcGVs-93">
          <mxGeometry relative="1" as="geometry">
            <Array as="points">
              <mxPoint x="521" y="599" />
              <mxPoint x="521" y="599" />
            </Array>
          </mxGeometry>
        </mxCell>
        <mxCell id="q-PoO6qzD3KENwYKcGVs-98" value="BLINKING_timer" style="edgeLabel;html=1;align=center;verticalAlign=middle;resizable=0;points=[];" vertex="1" connectable="0" parent="q-PoO6qzD3KENwYKcGVs-96">
          <mxGeometry x="-0.1425" y="1" relative="1" as="geometry">
            <mxPoint y="6" as="offset" />
          </mxGeometry>
        </mxCell>
        <mxCell id="q-PoO6qzD3KENwYKcGVs-67" value="ERROR_ON" style="swimlane;fontStyle=0;childLayout=stackLayout;horizontal=1;startSize=30;horizontalStack=0;resizeParent=1;resizeParentMax=0;resizeLast=0;collapsible=1;marginBottom=0;whiteSpace=wrap;html=1;" vertex="1" parent="1">
          <mxGeometry x="479" y="498" width="176" height="90" as="geometry">
            <mxRectangle x="464" y="549" width="80" height="30" as="alternateBounds" />
          </mxGeometry>
        </mxCell>
        <mxCell id="q-PoO6qzD3KENwYKcGVs-68" value="&lt;i&gt;entry&lt;/i&gt;: set(YELLOW_LED, ON)" style="text;strokeColor=none;fillColor=none;align=left;verticalAlign=middle;spacingLeft=4;spacingRight=4;overflow=hidden;points=[[0,0.5],[1,0.5]];portConstraint=eastwest;rotatable=0;whiteSpace=wrap;html=1;" vertex="1" parent="q-PoO6qzD3KENwYKcGVs-67">
          <mxGeometry y="30" width="176" height="30" as="geometry" />
        </mxCell>
        <mxCell id="q-PoO6qzD3KENwYKcGVs-91" value="&lt;i&gt;exit&lt;/i&gt;: set(&lt;span style=&quot;text-align: center;&quot;&gt;YELLOW&lt;/span&gt;_LED, OFF)" style="text;strokeColor=none;fillColor=none;align=left;verticalAlign=middle;spacingLeft=4;spacingRight=4;overflow=hidden;points=[[0,0.5],[1,0.5]];portConstraint=eastwest;rotatable=0;whiteSpace=wrap;html=1;" vertex="1" parent="q-PoO6qzD3KENwYKcGVs-67">
          <mxGeometry y="60" width="176" height="30" as="geometry" />
        </mxCell>
        <mxCell id="q-PoO6qzD3KENwYKcGVs-85" style="edgeStyle=orthogonalEdgeStyle;rounded=0;orthogonalLoop=1;jettySize=auto;html=1;exitX=1;exitY=0.5;exitDx=0;exitDy=0;" edge="1" parent="1" source="q-PoO6qzD3KENwYKcGVs-90" target="q-PoO6qzD3KENwYKcGVs-67">
          <mxGeometry relative="1" as="geometry">
            <mxPoint x="689.9999999999999" y="179.01030927835052" as="sourcePoint" />
            <mxPoint x="663" y="549" as="targetPoint" />
            <Array as="points">
              <mxPoint x="973" y="180" />
              <mxPoint x="973" y="550" />
            </Array>
          </mxGeometry>
        </mxCell>
        <mxCell id="q-PoO6qzD3KENwYKcGVs-86" value="SerialComand==&quot;setError&quot;" style="edgeLabel;html=1;align=center;verticalAlign=middle;resizable=0;points=[];" vertex="1" connectable="0" parent="q-PoO6qzD3KENwYKcGVs-85">
          <mxGeometry x="-0.6668" y="1" relative="1" as="geometry">
            <mxPoint x="-15" as="offset" />
          </mxGeometry>
        </mxCell>
        <mxCell id="q-PoO6qzD3KENwYKcGVs-88" style="edgeStyle=orthogonalEdgeStyle;rounded=0;orthogonalLoop=1;jettySize=auto;html=1;entryX=1;entryY=0.25;entryDx=0;entryDy=0;" edge="1" parent="1" source="q-PoO6qzD3KENwYKcGVs-104" target="q-PoO6qzD3KENwYKcGVs-64">
          <mxGeometry relative="1" as="geometry">
            <mxPoint x="743" y="573" as="sourcePoint" />
            <Array as="points">
              <mxPoint x="1000" y="579" />
              <mxPoint x="1000" y="137" />
              <mxPoint x="657" y="137" />
            </Array>
          </mxGeometry>
        </mxCell>
        <mxCell id="q-PoO6qzD3KENwYKcGVs-89" value="SerialComand==&quot;turnOff&quot;" style="edgeLabel;html=1;align=center;verticalAlign=middle;resizable=0;points=[];" vertex="1" connectable="0" parent="q-PoO6qzD3KENwYKcGVs-88">
          <mxGeometry x="-0.6833" y="-1" relative="1" as="geometry">
            <mxPoint x="-28" y="-1" as="offset" />
          </mxGeometry>
        </mxCell>
        <mxCell id="q-PoO6qzD3KENwYKcGVs-93" value="ERROR_OFF" style="swimlane;fontStyle=0;childLayout=stackLayout;horizontal=1;startSize=30;horizontalStack=0;resizeParent=1;resizeParentMax=0;resizeLast=0;collapsible=1;marginBottom=0;whiteSpace=wrap;html=1;" vertex="1" parent="1">
          <mxGeometry x="477" y="669" width="176" height="30" as="geometry">
            <mxRectangle x="464" y="549" width="80" height="30" as="alternateBounds" />
          </mxGeometry>
        </mxCell>
        <mxCell id="q-PoO6qzD3KENwYKcGVs-97" style="edgeStyle=orthogonalEdgeStyle;rounded=0;orthogonalLoop=1;jettySize=auto;html=1;entryX=0.25;entryY=0;entryDx=0;entryDy=0;startArrow=classic;startFill=1;endArrow=none;" edge="1" parent="1">
          <mxGeometry relative="1" as="geometry">
            <mxPoint x="613" y="588" as="sourcePoint" />
            <mxPoint x="613" y="669" as="targetPoint" />
            <Array as="points">
              <mxPoint x="613" y="609" />
              <mxPoint x="613" y="609" />
            </Array>
          </mxGeometry>
        </mxCell>
        <mxCell id="q-PoO6qzD3KENwYKcGVs-99" value="BLINKING_timer" style="edgeLabel;html=1;align=center;verticalAlign=middle;resizable=0;points=[];" vertex="1" connectable="0" parent="q-PoO6qzD3KENwYKcGVs-97">
          <mxGeometry x="-0.0228" relative="1" as="geometry">
            <mxPoint y="2" as="offset" />
          </mxGeometry>
        </mxCell>
        <mxCell id="q-PoO6qzD3KENwYKcGVs-104" value="ERROR" style="shape=umlFrame;whiteSpace=wrap;html=1;pointerEvents=0;strokeColor=#999999;dashed=1;" vertex="1" parent="1">
          <mxGeometry x="433" y="449" width="270" height="270" as="geometry" />
        </mxCell>
      </root>
    </mxGraphModel>
  </diagram>
</mxfile>
